<svg xmlns="http://www.w3.org/2000/svg" xmlns:xlink="http://www.w3.org/1999/xlink" viewBox="0,0,256,256" width="24px" height="24px"><g fill="#ffffff" fill-rule="nonzero" stroke="none" stroke-width="1" stroke-linecap="butt" stroke-linejoin="miter" stroke-miterlimit="10" stroke-dasharray="" stroke-dashoffset="0" font-family="none" font-weight="none" font-size="none" text-anchor="none" style="mix-blend-mode: normal"><g transform="scale(10.66667,10.66667)"><path d="M18,1c-3.32381,0 -6,2.67619 -6,6v1h-9.07031c-1.0952,0 -1.92969,0.94558 -1.92969,2v10c0,1.05441 0.83449,2 1.92969,2h11.14062c1.0952,0 1.92969,-0.94559 1.92969,-2v-10c0,-1.05442 -0.8324,-2 -1.92773,-2h-0.07227v-1c0,-2.27619 1.72381,-4 4,-4c2.27619,0 4,1.72381 4,4v2h2v-2c0,-3.32381 -2.67619,-6 -6,-6zM3,10h11v10h-11zM8.50781,13c-1.1,0 -2,0.9 -2,2c0,1.1 0.9,2 2,2c1.1,0 2,-0.9 2,-2c0,-1.1 -0.9,-2 -2,-2z"></path></g></g></svg>