<svg id="visual" viewBox="0 0 1400 1200" width="1400" height="1200" xmlns="http://www.w3.org/2000/svg" xmlns:xlink="http://www.w3.org/1999/xlink" version="1.1"><path d="M700 1200L839 1200L839 1029L793 1029L793 857L837 857L837 686L807 686L807 514L687 514L687 343L746 343L746 171L583 171L583 0L1400 0L1400 171L1400 171L1400 343L1400 343L1400 514L1400 514L1400 686L1400 686L1400 857L1400 857L1400 1029L1400 1029L1400 1200L1400 1200Z" fill="#36cfd1"></path><path d="M989 1200L1067 1200L1067 1029L1074 1029L1074 857L1061 857L1061 686L834 686L834 514L1084 514L1084 343L956 343L956 171L840 171L840 0L1400 0L1400 171L1400 171L1400 343L1400 343L1400 514L1400 514L1400 686L1400 686L1400 857L1400 857L1400 1029L1400 1029L1400 1200L1400 1200Z" fill="#00b5ff"></path><path d="M1120 1200L1190 1200L1190 1029L1246 1029L1246 857L1208 857L1208 686L1243 686L1243 514L1078 514L1078 343L1034 343L1034 171L1088 171L1088 0L1400 0L1400 171L1400 171L1400 343L1400 343L1400 514L1400 514L1400 686L1400 686L1400 857L1400 857L1400 1029L1400 1029L1400 1200L1400 1200Z" fill="#9282fc"></path></svg>